<svg width="692" height="716" viewBox="0 0 692 716" fill="none" xmlns="http://www.w3.org/2000/svg">
<path d="M250.581 525.135C250.581 525.135 327.889 499.823 402.604 485.079C477.318 470.334 547.159 441.305 593.873 370.914C640.491 300.638 611.551 215.972 586.045 179.082C560.538 142.192 494.295 85.6275 430.763 74.6632C367.23 63.6988 298.638 104.558 268.39 138.97C238.142 173.383 211.847 272.475 213.113 335.683C214.379 398.892 196.577 482.957 196.577 482.957L126.75 564.537L181.689 608.873L250.581 525.135ZM449.203 414.591C443.505 416.475 437.266 413.397 435.267 407.602C433.383 401.904 436.461 395.665 442.256 393.666C447.954 391.782 454.193 394.86 456.192 400.655C458.191 406.449 454.998 412.592 449.203 414.591ZM405.388 191.583C407.272 197.281 404.194 203.52 398.399 205.519C392.701 207.404 386.462 204.325 384.463 198.53C382.579 192.832 385.657 186.594 391.452 184.594C397.361 182.691 403.504 185.885 405.388 191.583ZM407.144 172.668C405.26 166.97 408.338 160.731 414.133 158.732C419.928 156.732 426.07 159.926 428.069 165.721C429.954 171.419 426.875 177.658 421.081 179.657C415.286 181.656 408.932 178.481 407.144 172.668ZM383.524 214.602C385.408 220.3 382.33 226.539 376.535 228.539C370.837 230.423 364.598 227.344 362.599 221.55C360.715 215.852 363.793 209.613 369.588 207.614C375.497 205.711 381.64 208.904 383.524 214.602ZM461.992 261.036C460.108 255.338 463.186 249.1 468.981 247.1C474.775 245.101 480.918 248.294 482.917 254.089C484.801 259.787 481.723 266.026 475.928 268.025C470.115 269.813 463.876 266.735 461.992 261.036ZM461.071 277.32C462.956 283.018 459.877 289.257 454.083 291.256C448.288 293.256 442.146 290.062 440.146 284.267C438.262 278.569 441.341 272.33 447.135 270.331C452.93 268.332 459.072 271.525 461.071 277.32ZM428.999 271.385C423.301 273.269 417.062 270.191 415.063 264.396C413.179 258.698 416.257 252.459 422.052 250.46C427.75 248.576 433.989 251.654 435.988 257.449C437.776 263.262 434.697 269.501 428.999 271.385ZM437.023 241.262C435.139 235.564 438.218 229.325 444.012 227.325C449.71 225.441 455.949 228.52 457.949 234.314C459.833 240.012 456.754 246.251 450.96 248.25C445.05 250.153 438.811 247.075 437.023 241.262ZM459.512 215.629C457.627 209.931 460.706 203.692 466.501 201.693C472.199 199.809 478.437 202.887 480.437 208.682C482.321 214.38 479.243 220.619 473.448 222.618C467.538 224.521 461.396 221.327 459.512 215.629ZM423.464 225.179C417.766 227.063 411.527 223.985 409.528 218.19C407.644 212.492 410.722 206.253 416.517 204.254C422.215 202.37 428.454 205.448 430.453 211.243C432.356 217.152 429.162 223.295 423.464 225.179ZM363.883 239.879C365.767 245.577 362.688 251.816 356.894 253.815C351.196 255.7 344.957 252.621 342.958 246.826C341.073 241.128 344.152 234.889 349.946 232.89C355.741 230.891 361.998 234.181 363.883 239.879ZM387.779 241.306C385.895 235.608 388.973 229.369 394.768 227.37C400.466 225.486 406.705 228.564 408.704 234.359C410.588 240.057 407.51 246.296 401.715 248.295C395.902 250.083 389.663 247.004 387.779 241.306ZM388.851 259.654C390.735 265.352 387.657 271.591 381.862 273.59C376.164 275.474 369.925 272.396 367.926 266.601C366.042 260.903 369.12 254.664 374.915 252.665C380.825 250.762 387.063 253.841 388.851 259.654ZM370.784 285.859C372.668 291.557 369.589 297.796 363.795 299.795C358.097 301.679 351.858 298.601 349.858 292.806C347.974 287.108 351.053 280.869 356.847 278.87C362.642 276.871 368.784 280.064 370.784 285.859ZM402.41 275.736C408.108 273.852 414.347 276.931 416.347 282.725C418.231 288.423 415.152 294.662 409.358 296.661C403.66 298.546 397.421 295.467 395.422 289.673C393.519 283.763 396.712 277.621 402.41 275.736ZM398.067 308.949C399.952 314.647 396.873 320.886 391.079 322.885C385.284 324.884 379.142 321.691 377.142 315.896C375.258 310.198 378.337 303.959 384.131 301.96C390.041 300.057 396.183 303.251 398.067 308.949ZM420.487 309.332C418.602 303.634 421.681 297.396 427.475 295.396C433.27 293.397 439.412 296.59 441.412 302.385C443.296 308.083 440.217 314.322 434.423 316.321C428.513 318.224 422.371 315.03 420.487 309.332ZM468.507 307.476C466.622 301.778 469.701 295.539 475.495 293.54C481.194 291.656 487.432 294.734 489.432 300.529C491.316 306.227 488.238 312.466 482.443 314.465C476.533 316.368 470.294 313.289 468.507 307.476ZM469.694 325.921C471.578 331.619 468.5 337.858 462.705 339.857C457.007 341.741 450.768 338.663 448.769 332.868C446.77 327.073 449.963 320.931 455.758 318.932C461.552 316.932 467.695 320.126 469.694 325.921ZM423.132 328.608C425.017 334.306 421.938 340.545 416.144 342.545C410.446 344.429 404.207 341.35 402.207 335.556C400.208 329.761 403.402 323.619 409.196 321.62C415.009 319.832 421.248 322.91 423.132 328.608ZM401.669 352.552C403.553 358.25 400.475 364.489 394.68 366.488C388.982 368.373 382.743 365.294 380.744 359.5C378.86 353.801 381.938 347.563 387.733 345.563C393.642 343.66 399.785 346.854 401.669 352.552ZM437.575 345.04C443.273 343.156 449.512 346.234 451.511 352.029C453.396 357.727 450.317 363.966 444.522 365.965C438.824 367.85 432.586 364.771 430.586 358.976C428.702 353.278 431.78 347.04 437.575 345.04ZM384.101 384.47C385.985 390.168 382.907 396.407 377.112 398.406C371.318 400.405 365.175 397.212 363.176 391.417C361.292 385.719 364.37 379.48 370.165 377.481C376.075 375.578 382.217 378.772 384.101 384.47ZM409.104 382.709C407.22 377.01 410.299 370.772 416.093 368.772C421.791 366.888 428.03 369.967 430.029 375.761C432.029 381.556 428.835 387.698 423.041 389.697C417.246 391.697 411.104 388.503 409.104 382.709ZM409.07 404.244C410.954 409.942 407.875 416.181 402.081 418.181C396.383 420.065 390.144 416.986 388.145 411.192C386.145 405.397 389.339 399.255 395.133 397.256C401.043 395.353 407.282 398.431 409.07 404.244ZM477.674 376.923C479.558 382.621 476.48 388.86 470.685 390.859C464.89 392.858 458.748 389.665 456.749 383.87C454.749 378.075 457.943 371.933 463.738 369.934C469.532 367.935 475.886 371.11 477.674 376.923ZM488.849 364.539C483.151 366.423 476.912 363.345 474.913 357.55C473.029 351.852 476.107 345.613 481.902 343.614C487.6 341.73 493.839 344.808 495.838 350.603C497.837 356.397 494.759 362.636 488.849 364.539ZM508.605 339.359C502.907 341.243 496.669 338.165 494.669 332.37C492.785 326.672 495.863 320.433 501.658 318.434C507.356 316.549 513.595 319.628 515.594 325.423C517.594 331.217 514.4 337.359 508.605 339.359ZM530.451 316.128C524.753 318.012 518.514 314.934 516.515 309.139C514.631 303.441 517.709 297.202 523.504 295.203C529.202 293.319 535.441 296.397 537.44 302.192C539.343 308.101 536.264 314.34 530.451 316.128ZM560.043 276.656C561.928 282.354 558.849 288.593 553.054 290.592C547.356 292.476 541.118 289.398 539.118 283.603C537.234 277.905 540.312 271.666 546.107 269.667C551.92 267.879 558.159 270.958 560.043 276.656ZM504.095 291.464C498.397 293.349 492.159 290.27 490.159 284.476C488.16 278.681 491.353 272.539 497.148 270.539C502.846 268.655 509.085 271.734 511.084 277.528C513.084 283.323 510.005 289.562 504.095 291.464ZM533.784 251.877C535.668 257.575 532.59 263.814 526.795 265.814C521.097 267.698 514.858 264.619 512.859 258.825C510.86 253.03 514.053 246.888 519.848 244.888C525.642 242.889 531.9 246.179 533.784 251.877ZM552.809 226.868C554.693 232.566 551.615 238.805 545.82 240.804C540.026 242.803 533.883 239.61 531.884 233.815C530 228.117 533.078 221.878 538.873 219.879C544.686 218.091 550.925 221.17 552.809 226.868ZM498.417 242.393C492.718 244.277 486.48 241.199 484.48 235.404C482.596 229.706 485.674 223.467 491.469 221.468C497.167 219.584 503.406 222.662 505.405 228.457C507.405 234.251 504.211 240.394 498.417 242.393ZM524.545 203.544C526.43 209.242 523.351 215.481 517.557 217.48C511.859 219.364 505.62 216.286 503.62 210.491C501.736 204.793 504.815 198.554 510.609 196.555C516.404 194.556 522.546 197.749 524.545 203.544ZM499.365 183.787C501.25 189.486 498.171 195.724 492.376 197.724C486.678 199.608 480.44 196.529 478.44 190.735C476.556 185.037 479.634 178.798 485.429 176.799C491.339 174.896 497.578 177.974 499.365 183.787ZM446.049 199.432C440.351 201.316 434.112 198.237 432.113 192.443C430.228 186.745 433.307 180.506 439.102 178.507C444.8 176.622 451.039 179.701 453.038 185.495C454.941 191.405 451.862 197.644 446.049 199.432ZM472.081 160.697C473.966 166.396 470.887 172.634 465.093 174.634C459.395 176.518 453.156 173.439 451.156 167.645C449.272 161.947 452.351 155.708 458.145 153.709C463.94 151.709 470.179 154.788 472.081 160.697ZM446.998 140.826C448.882 146.524 445.804 152.763 440.009 154.762C434.311 156.647 428.072 153.568 426.073 147.774C424.188 142.076 427.267 135.837 433.062 133.837C438.875 132.05 445.114 135.128 446.998 140.826ZM383.464 135.938C389.162 134.054 395.401 137.132 397.4 142.927C399.4 148.721 396.206 154.864 390.411 156.863C384.713 158.747 378.474 155.669 376.475 149.874C374.476 144.08 377.766 137.822 383.464 135.938ZM360.976 161.57C366.674 159.686 372.913 162.765 374.912 168.559C376.911 174.354 373.718 180.496 367.923 182.495C362.225 184.38 355.986 181.301 353.987 175.507C351.987 169.712 355.181 163.57 360.976 161.57ZM339.015 184.705C344.713 182.82 350.952 185.899 352.951 191.694C354.836 197.392 351.757 203.63 345.962 205.63C340.264 207.514 334.026 204.436 332.026 198.641C330.238 192.828 333.317 186.589 339.015 184.705ZM312.366 223.706C310.482 218.008 313.561 211.769 319.355 209.77C325.053 207.885 331.292 210.964 333.291 216.759C335.291 222.553 332.097 228.695 326.303 230.695C320.508 232.694 314.366 229.501 312.366 223.706ZM301.191 236.09C306.889 234.205 313.128 237.284 315.127 243.079C317.012 248.777 313.933 255.015 308.139 257.015C302.44 258.899 296.202 255.821 294.202 250.026C292.203 244.231 295.396 238.089 301.191 236.09ZM272.72 273.758C270.836 268.06 273.915 261.821 279.709 259.822C285.407 257.938 291.646 261.016 293.645 266.811C295.645 272.605 292.451 278.748 286.657 280.747C280.862 282.746 274.72 279.553 272.72 273.758ZM331.764 258.999C337.462 257.114 343.701 260.193 345.7 265.987C347.699 271.782 344.506 277.924 338.711 279.924C333.013 281.808 326.774 278.729 324.775 272.935C322.987 267.122 326.066 260.883 331.764 258.999ZM303.408 296.763C301.524 291.065 304.602 284.827 310.397 282.827C316.095 280.943 322.334 284.021 324.333 289.816C326.217 295.514 323.139 301.753 317.344 303.752C311.435 305.655 305.292 302.461 303.408 296.763ZM280.236 325.547C278.352 319.849 281.43 313.61 287.225 311.611C292.923 309.726 299.162 312.805 301.161 318.599C303.045 324.298 299.967 330.536 294.172 332.536C288.263 334.438 282.12 331.245 280.236 325.547ZM328.376 316.538C326.492 310.84 329.571 304.601 335.365 302.602C341.16 300.603 347.302 303.796 349.302 309.591C351.186 315.289 348.107 321.528 342.313 323.527C336.518 325.526 330.261 322.236 328.376 316.538ZM310.809 348.456C308.924 342.758 312.003 336.519 317.797 334.52C323.495 332.635 329.734 335.714 331.734 341.508C333.733 347.303 330.539 353.445 324.745 355.445C318.835 357.347 312.693 354.154 310.809 348.456ZM355.757 339.513C353.873 333.815 356.951 327.576 362.746 325.577C368.444 323.693 374.683 326.771 376.682 332.566C378.566 338.264 375.488 344.503 369.693 346.502C363.899 348.501 357.66 345.423 355.757 339.513ZM342.881 354.391C348.579 352.507 354.818 355.585 356.817 361.38C358.817 367.174 355.623 373.317 349.828 375.316C344.034 377.315 337.892 374.122 335.892 368.327C333.893 362.533 337.183 356.275 342.881 354.391ZM233.148 472.082L258.828 401.293L320.402 450.804L249.317 483.886L233.148 472.082Z" fill="#00343E"/>
<mask id="mask0_463_263" style="mask-type:alpha" maskUnits="userSpaceOnUse" x="346" y="0" width="200" height="550">
<rect x="346" width="200" height="550" fill="#D9D9D9"/>
</mask>
<g mask="url(#mask0_463_263)">
<path d="M429.333 527.086V320.836H404.333V45.8359H487.666L454.333 252.086H487.666L429.333 527.086Z" fill="white"/>
</g>
</svg>
